<svg xmlns="http://www.w3.org/2000/svg" viewBox="0 0 64 64" role="img" aria-label="Study Share Favicon">
  <defs>
    <style>
      .s{stroke:#0f172a;stroke-width:2;stroke-linecap:round;stroke-linejoin:round}
    </style>
  </defs>

  <!-- Rounded background -->
  <rect x="2" y="2" width="60" height="60" rx="14" fill="#32456a"/>

  <!-- Open book (moved up) -->
  <path class="s" fill="#ffffff" d="M12 36c0-4 4-6 10-6h10v22H22c-6 0-10 2-10 6V36z"/>
  <path class="s" fill="#ffffff" d="M52 36c0-4-4-6-10-6H32v22h10c6 0 10 2 10 6V36z"/>
  <path class="s" fill="none" d="M32 30v22"/>

  <!-- Book accent lines (moved up) -->
  <path class="s" fill="none" d="M16 40c2-1 4-1 6-1h6"/>
  <path class="s" fill="none" d="M16 44c2-1 4-1 5-1h5"/>

  <path class="s" fill="none" d="M48 40c-2-1-4-1-6-1h-6"/>
  <path class="s" fill="none" d="M48 44c-2-1-4-1-5-1h-5"/>

  <!-- Graduation cap (moved up) -->
  <path class="s" fill="#111827" d="M20 26l12-6 12 6-12 6-12-6z"/>
  <path class="s" fill="#0f172a" d="M24 29v5c0 3 16 3 16 0v-5"/>

  <!-- Tassel (moved up) -->
  <path class="s" fill="none" d="M44 26v10"/>
  <circle class="s" cx="44" cy="38" r="2" fill="#f59e0b"/>

  <!-- Share nodes (moved up) -->
  <path class="s" fill="none" d="M41 16l8 4 4-8"/>
  <path class="s" fill="none" d="M41 16l4 8 8 4"/>

  <circle class="s" cx="41" cy="16" r="3" fill="#3b82f6"/>
  <circle class="s" cx="49" cy="20" r="3" fill="#22c55e"/>
  <circle class="s" cx="53" cy="12" r="3" fill="#f97316"/>
</svg>
